<?xml version="1.0" encoding="UTF-8"?>
<svg xmlns="http://www.w3.org/2000/svg" width="1920" height="1080" viewBox="0 0 1920 1080">
  <defs>
    <linearGradient id="kawungGold" x1="0%" y1="0%" x2="100%" y2="100%">
      <stop offset="0%" stop-color="#B8863B"/>
      <stop offset="50%" stop-color="#D8B46A"/>
      <stop offset="100%" stop-color="#8C5A2B"/>
    </linearGradient>

    <symbol id="kawung" viewBox="0 0 200 200">
      <g fill="none" stroke="url(#kawungGold)" stroke-width="2.5">
        <ellipse cx="100" cy="55" rx="28" ry="48"/>
        <ellipse cx="145" cy="100" rx="48" ry="28"/>
        <ellipse cx="100" cy="145" rx="28" ry="48"/>
        <ellipse cx="55" cy="100" rx="48" ry="28"/>
      </g>
      <circle cx="100" cy="100" r="4" fill="url(#kawungGold)"/>
    </symbol>
  </defs>

  <g opacity="0.4">
<use href="#kawung" x="-20" y="-20" width="120" height="120"/>
<use href="#kawung" x="120" y="-20" width="120" height="120"/>
<use href="#kawung" x="260" y="-20" width="120" height="120"/>
<use href="#kawung" x="400" y="-20" width="120" height="120"/>
<use href="#kawung" x="540" y="-20" width="120" height="120"/>
<use href="#kawung" x="680" y="-20" width="120" height="120"/>
<use href="#kawung" x="820" y="-20" width="120" height="120"/>
<use href="#kawung" x="960" y="-20" width="120" height="120"/>
<use href="#kawung" x="1100" y="-20" width="120" height="120"/>
<use href="#kawung" x="1240" y="-20" width="120" height="120"/>
<use href="#kawung" x="1380" y="-20" width="120" height="120"/>
<use href="#kawung" x="1520" y="-20" width="120" height="120"/>
<use href="#kawung" x="1660" y="-20" width="120" height="120"/>
<use href="#kawung" x="1800" y="-20" width="120" height="120"/>
<use href="#kawung" x="1940" y="-20" width="120" height="120"/>
<use href="#kawung" x="-20" y="120" width="120" height="120"/>
<use href="#kawung" x="120" y="120" width="120" height="120"/>
<use href="#kawung" x="260" y="120" width="120" height="120"/>
<use href="#kawung" x="400" y="120" width="120" height="120"/>
<use href="#kawung" x="540" y="120" width="120" height="120"/>
<use href="#kawung" x="680" y="120" width="120" height="120"/>
<use href="#kawung" x="820" y="120" width="120" height="120"/>
<use href="#kawung" x="960" y="120" width="120" height="120"/>
<use href="#kawung" x="1100" y="120" width="120" height="120"/>
<use href="#kawung" x="1240" y="120" width="120" height="120"/>
<use href="#kawung" x="1380" y="120" width="120" height="120"/>
<use href="#kawung" x="1520" y="120" width="120" height="120"/>
<use href="#kawung" x="1660" y="120" width="120" height="120"/>
<use href="#kawung" x="1800" y="120" width="120" height="120"/>
<use href="#kawung" x="1940" y="120" width="120" height="120"/>
<use href="#kawung" x="-20" y="260" width="120" height="120"/>
<use href="#kawung" x="120" y="260" width="120" height="120"/>
<use href="#kawung" x="260" y="260" width="120" height="120"/>
<use href="#kawung" x="400" y="260" width="120" height="120"/>
<use href="#kawung" x="540" y="260" width="120" height="120"/>
<use href="#kawung" x="680" y="260" width="120" height="120"/>
<use href="#kawung" x="820" y="260" width="120" height="120"/>
<use href="#kawung" x="960" y="260" width="120" height="120"/>
<use href="#kawung" x="1100" y="260" width="120" height="120"/>
<use href="#kawung" x="1240" y="260" width="120" height="120"/>
<use href="#kawung" x="1380" y="260" width="120" height="120"/>
<use href="#kawung" x="1520" y="260" width="120" height="120"/>
<use href="#kawung" x="1660" y="260" width="120" height="120"/>
<use href="#kawung" x="1800" y="260" width="120" height="120"/>
<use href="#kawung" x="1940" y="260" width="120" height="120"/>
<use href="#kawung" x="-20" y="400" width="120" height="120"/>
<use href="#kawung" x="120" y="400" width="120" height="120"/>
<use href="#kawung" x="260" y="400" width="120" height="120"/>
<use href="#kawung" x="400" y="400" width="120" height="120"/>
<use href="#kawung" x="540" y="400" width="120" height="120"/>
<use href="#kawung" x="680" y="400" width="120" height="120"/>
<use href="#kawung" x="820" y="400" width="120" height="120"/>
<use href="#kawung" x="960" y="400" width="120" height="120"/>
<use href="#kawung" x="1100" y="400" width="120" height="120"/>
<use href="#kawung" x="1240" y="400" width="120" height="120"/>
<use href="#kawung" x="1380" y="400" width="120" height="120"/>
<use href="#kawung" x="1520" y="400" width="120" height="120"/>
<use href="#kawung" x="1660" y="400" width="120" height="120"/>
<use href="#kawung" x="1800" y="400" width="120" height="120"/>
<use href="#kawung" x="1940" y="400" width="120" height="120"/>
<use href="#kawung" x="-20" y="540" width="120" height="120"/>
<use href="#kawung" x="120" y="540" width="120" height="120"/>
<use href="#kawung" x="260" y="540" width="120" height="120"/>
<use href="#kawung" x="400" y="540" width="120" height="120"/>
<use href="#kawung" x="540" y="540" width="120" height="120"/>
<use href="#kawung" x="680" y="540" width="120" height="120"/>
<use href="#kawung" x="820" y="540" width="120" height="120"/>
<use href="#kawung" x="960" y="540" width="120" height="120"/>
<use href="#kawung" x="1100" y="540" width="120" height="120"/>
<use href="#kawung" x="1240" y="540" width="120" height="120"/>
<use href="#kawung" x="1380" y="540" width="120" height="120"/>
<use href="#kawung" x="1520" y="540" width="120" height="120"/>
<use href="#kawung" x="1660" y="540" width="120" height="120"/>
<use href="#kawung" x="1800" y="540" width="120" height="120"/>
<use href="#kawung" x="1940" y="540" width="120" height="120"/>
<use href="#kawung" x="-20" y="680" width="120" height="120"/>
<use href="#kawung" x="120" y="680" width="120" height="120"/>
<use href="#kawung" x="260" y="680" width="120" height="120"/>
<use href="#kawung" x="400" y="680" width="120" height="120"/>
<use href="#kawung" x="540" y="680" width="120" height="120"/>
<use href="#kawung" x="680" y="680" width="120" height="120"/>
<use href="#kawung" x="820" y="680" width="120" height="120"/>
<use href="#kawung" x="960" y="680" width="120" height="120"/>
<use href="#kawung" x="1100" y="680" width="120" height="120"/>
<use href="#kawung" x="1240" y="680" width="120" height="120"/>
<use href="#kawung" x="1380" y="680" width="120" height="120"/>
<use href="#kawung" x="1520" y="680" width="120" height="120"/>
<use href="#kawung" x="1660" y="680" width="120" height="120"/>
<use href="#kawung" x="1800" y="680" width="120" height="120"/>
<use href="#kawung" x="1940" y="680" width="120" height="120"/>
<use href="#kawung" x="-20" y="820" width="120" height="120"/>
<use href="#kawung" x="120" y="820" width="120" height="120"/>
<use href="#kawung" x="260" y="820" width="120" height="120"/>
<use href="#kawung" x="400" y="820" width="120" height="120"/>
<use href="#kawung" x="540" y="820" width="120" height="120"/>
<use href="#kawung" x="680" y="820" width="120" height="120"/>
<use href="#kawung" x="820" y="820" width="120" height="120"/>
<use href="#kawung" x="960" y="820" width="120" height="120"/>
<use href="#kawung" x="1100" y="820" width="120" height="120"/>
<use href="#kawung" x="1240" y="820" width="120" height="120"/>
<use href="#kawung" x="1380" y="820" width="120" height="120"/>
<use href="#kawung" x="1520" y="820" width="120" height="120"/>
<use href="#kawung" x="1660" y="820" width="120" height="120"/>
<use href="#kawung" x="1800" y="820" width="120" height="120"/>
<use href="#kawung" x="1940" y="820" width="120" height="120"/>
<use href="#kawung" x="-20" y="960" width="120" height="120"/>
<use href="#kawung" x="120" y="960" width="120" height="120"/>
<use href="#kawung" x="260" y="960" width="120" height="120"/>
<use href="#kawung" x="400" y="960" width="120" height="120"/>
<use href="#kawung" x="540" y="960" width="120" height="120"/>
<use href="#kawung" x="680" y="960" width="120" height="120"/>
<use href="#kawung" x="820" y="960" width="120" height="120"/>
<use href="#kawung" x="960" y="960" width="120" height="120"/>
<use href="#kawung" x="1100" y="960" width="120" height="120"/>
<use href="#kawung" x="1240" y="960" width="120" height="120"/>
<use href="#kawung" x="1380" y="960" width="120" height="120"/>
<use href="#kawung" x="1520" y="960" width="120" height="120"/>
<use href="#kawung" x="1660" y="960" width="120" height="120"/>
<use href="#kawung" x="1800" y="960" width="120" height="120"/>
<use href="#kawung" x="1940" y="960" width="120" height="120"/>
<use href="#kawung" x="-20" y="1100" width="120" height="120"/>
<use href="#kawung" x="120" y="1100" width="120" height="120"/>
<use href="#kawung" x="260" y="1100" width="120" height="120"/>
<use href="#kawung" x="400" y="1100" width="120" height="120"/>
<use href="#kawung" x="540" y="1100" width="120" height="120"/>
<use href="#kawung" x="680" y="1100" width="120" height="120"/>
<use href="#kawung" x="820" y="1100" width="120" height="120"/>
<use href="#kawung" x="960" y="1100" width="120" height="120"/>
<use href="#kawung" x="1100" y="1100" width="120" height="120"/>
<use href="#kawung" x="1240" y="1100" width="120" height="120"/>
<use href="#kawung" x="1380" y="1100" width="120" height="120"/>
<use href="#kawung" x="1520" y="1100" width="120" height="120"/>
<use href="#kawung" x="1660" y="1100" width="120" height="120"/>
<use href="#kawung" x="1800" y="1100" width="120" height="120"/>
<use href="#kawung" x="1940" y="1100" width="120" height="120"/>

  </g>
</svg>
